<?xml version="1.0" standalone="no"?><!DOCTYPE svg PUBLIC "-//W3C//DTD SVG 1.1//EN" "http://www.w3.org/Graphics/SVG/1.1/DTD/svg11.dtd"><svg t="1672908036421" class="icon" viewBox="0 0 1024 1024" version="1.1" xmlns="http://www.w3.org/2000/svg" p-id="4571" xmlns:xlink="http://www.w3.org/1999/xlink" width="200" height="200"><path d="M744.533333 422.4c2.133333 2.133333 4.266667 4.266667 8.533334 4.266667h113.066666c4.266667 0 6.4-2.133333 8.533334-4.266667l55.466666-96c2.133333-2.133333 2.133333-6.4 0-8.533333L874.666667 221.866667c0-6.4-4.266667-8.533333-8.533334-8.533334h-113.066666c-4.266667 0-6.4 2.133333-8.533334 4.266667l-55.466666 96c-2.133333 2.133333-2.133333 6.4 0 8.533333l55.466666 100.266667z m14.933334-189.866667h100.266666l51.2 87.466667-51.2 87.466667h-100.266666L710.4 320l49.066667-87.466667z m196.266666-140.8l-42.666666-25.6c-4.266667-2.133333-8.533333-2.133333-10.666667 0l-42.666667 25.6c-4.266667 2.133333-6.4 6.4-6.4 10.666667v53.333333c0 4.266667 2.133333 6.4 4.266667 8.533334l42.666667 25.6c2.133333 2.133333 4.266667 2.133333 6.4 2.133333s4.266667 0 6.4-2.133333l42.666666-25.6c2.133333-2.133333 4.266667-6.4 4.266667-10.666667V102.4c0-4.266667-2.133333-8.533333-4.266667-10.666667zM938.666667 149.333333l-32 19.2L874.666667 149.333333V106.666667l32-19.2L938.666667 106.666667v42.666666z m-484.266667 166.4c2.133333 4.266667 6.4 4.266667 8.533333 4.266667h140.8c4.266667 0 6.4-2.133333 8.533334-6.4l68.266666-117.333333c2.133333-4.266667 2.133333-6.4 0-10.666667l-68.266666-117.333333c0-2.133333-4.266667-4.266667-8.533334-4.266667h-140.8c-4.266667 0-6.4 2.133333-8.533333 4.266667L384 185.6c-2.133333 4.266667-2.133333 8.533333 0 10.666667l70.4 119.466666zM471.466667 85.333333h128L661.333333 192l-64 106.666667h-128l-61.866666-106.666667 64-106.666667z m379.733333 416c-4.266667-6.4-10.666667-10.666667-19.2-10.666666h-155.733333l-76.8-138.666667c-2.133333-6.4-8.533333-10.666667-17.066667-10.666667H426.666667l-76.8-138.666666c-4.266667-6.4-10.666667-10.666667-19.2-10.666667H164.266667c-8.533333 0-14.933333 4.266667-19.2 10.666667l-78.933334 149.333333c-4.266667 6.4-4.266667 14.933333 0 21.333333l72.533334 128L66.133333 640c-2.133333 6.4-4.266667 12.8 0 19.2l78.933334 160c2.133333 8.533333 10.666667 12.8 19.2 12.8H320l76.8 117.333333c4.266667 6.4 10.666667 10.666667 17.066667 10.666667h168.533333c6.4 0 14.933333-4.266667 17.066667-10.666667l76.8-117.333333H832c8.533333 0 14.933333-4.266667 19.2-10.666667l83.2-149.333333c4.266667-6.4 4.266667-14.933333 0-21.333333l-83.2-149.333334zM569.6 384l76.8 138.666667L576 640h-155.733333l-76.8-136.533333 72.533333-119.466667h153.6zM108.8 362.666667l66.133333-128h142.933334l76.8 138.666666-68.266667 117.333334H183.466667l-74.666667-128z m68.266667 426.666666l-68.266667-138.666666L181.333333 512h142.933334l78.933333 138.666667-74.666667 138.666666H177.066667z m471.466666 10.666667L571.733333 917.333333H426.666667l-76.8-117.333333v-2.133333l72.533333-136.533334H576l72.533333 138.666667c0-2.133333 0-2.133333 0 0z m172.8-10.666667h-151.466666l-74.666667-138.666666 70.4-117.333334h155.733333l72.533334 128-72.533334 128z" p-id="4572"></path></svg>